HIERARCHY
ROOT Hips
{
	OFFSET -3.958830 18.904000 13.208200
	CHANNELS 6 Xposition Yposition Zposition Zrotation Yrotation Xrotation 
	JOINT LHipJoint
	{
		OFFSET 0.000000 0.000000 0.000000
		CHANNELS 3 Zrotation Yrotation Xrotation
		JOINT LeftUpLeg
		{
			OFFSET 1.800000 -1.400000 0.085000
			CHANNELS 3 Zrotation Yrotation Xrotation
			JOINT LeftLeg
			{
				OFFSET 2.215000 -6.000000 0.000000
				CHANNELS 3 Zrotation Yrotation Xrotation
				JOINT LeftFoot
				{
					OFFSET 2.500000 -6.900000 0.000000
					CHANNELS 3 Zrotation Yrotation Xrotation
					JOINT LeftToeBase
					{
						OFFSET 0.200000 -0.500000 1.950000
						CHANNELS 3 Zrotation Yrotation Xrotation
						End Site
						{
							OFFSET 0.000000 0.000000 0.000000
						}
					}
				}
			}
		}
	}
	JOINT RHipJoint
	{
		OFFSET 0.000000 0.000000 0.000000
		CHANNELS 3 Zrotation Yrotation Xrotation
		JOINT RightUpLeg
		{
			OFFSET -1.800000 -1.400000 0.085000
			CHANNELS 3 Zrotation Yrotation Xrotation
			JOINT RightLeg
			{
				OFFSET -2.215000 -6.000000 0.000000
				CHANNELS 3 Zrotation Yrotation Xrotation
				JOINT RightFoot
				{
					OFFSET -2.500000 -6.900000 0.000000
					CHANNELS 3 Zrotation Yrotation Xrotation
					JOINT RightToeBase
					{
						OFFSET -0.200000 -0.500000 1.950000
						CHANNELS 3 Zrotation Yrotation Xrotation
						End Site
						{
							OFFSET 0.000000 0.000000 0.000000
						}
					}
				}
			}
		}
	}
	JOINT LowerBack
	{
		OFFSET 0.000000 0.000000 0.000000
		CHANNELS 3 Zrotation Yrotation Xrotation
		JOINT Spine
		{
			OFFSET -0.087000 1.940000 -0.288900
			CHANNELS 3 Zrotation Yrotation Xrotation
			JOINT Spine1
			{
				OFFSET 0.000000 1.950000 0.060000
				CHANNELS 3 Zrotation Yrotation Xrotation
				JOINT Neck
				{
					OFFSET 0.000000 0.000000 0.000000
					CHANNELS 3 Zrotation Yrotation Xrotation
					JOINT Neck1
					{
						OFFSET 0.000000 1.600000 0.340000
						CHANNELS 3 Zrotation Yrotation Xrotation
						JOINT Head
						{
							OFFSET 0.000000 1.667000 -0.240000
							CHANNELS 3 Zrotation Yrotation Xrotation
							End Site
							{
								OFFSET 0.000000 0.000000 0.000000
							}
						}
					}
				}
				JOINT LeftShoulder
				{
					OFFSET 0.000000 0.000000 0.000000
					CHANNELS 3 Zrotation Yrotation Xrotation
					JOINT LeftArm
					{
						OFFSET 2.700000 1.550000 -0.730000
						CHANNELS 3 Zrotation Yrotation Xrotation
						JOINT LeftForeArm
						{
							OFFSET 5.450000 0.000000 0.000000
							CHANNELS 3 Zrotation Yrotation Xrotation
							JOINT LeftHand
							{
								OFFSET 3.450000 0.000000 0.000000
								CHANNELS 3 Zrotation Yrotation Xrotation
								JOINT LeftHandIndex1
								{
									OFFSET 0.750000 0.000000 0.000000
									CHANNELS 3 Zrotation Yrotation Xrotation
									End Site
									{
										OFFSET 0.000000 0.000000 0.000000
									}
								}
							}
						}
					}
				}
				JOINT RightShoulder
				{
					OFFSET 0.000000 0.000000 0.000000
					CHANNELS 3 Zrotation Yrotation Xrotation
					JOINT RightArm
					{
						OFFSET -2.700000 1.550000 -0.730000
						CHANNELS 3 Zrotation Yrotation Xrotation
						JOINT RightForeArm
						{
							OFFSET -5.450000 0.000000 0.000000
							CHANNELS 3 Zrotation Yrotation Xrotation
							JOINT RightHand
							{
								OFFSET -3.450000 0.000000 0.000000
								CHANNELS 3 Zrotation Yrotation Xrotation
								JOINT RightHandIndex1
								{
									OFFSET -0.750000 0.000000 0.000000
									CHANNELS 3 Zrotation Yrotation Xrotation
									End Site
									{
										OFFSET 0.000000 0.000000 0.000000
									}
								}
							}
						}
					}
				}
			}
		}
	}
}
MOTION
Frames: 14
Frame Time: 0.016667
0.076730 16.947110 -2.087410 -2.978312 0.413111 12.502904 -15.224679 12.450337 3.658095 12.647061 -1.811467 -9.663324 -9.385704 3.212166 -7.379920 0.504007 3.736138 3.248548 -0.179560 -0.160970 0.055180 18.131835 -10.122086 3.232725 -13.842577 0.991394 -9.617751 7.364580 -2.468300 -4.733812 -0.021809 -3.500656 3.145618 -0.197370 -0.039590 -0.200740 -3.292909 -1.564928 -8.402348 5.506164 0.827186 -0.148340 -0.127141 0.850468 -5.872707 2.262719 -2.759933 -15.378216 -7.565377 1.181930 36.608888 0.597740 0.375960 9.761300 -3.201231 -3.792670 6.387297 -3.980789 16.797905 -2.005163 5.834293 -5.094253 0.358663 -3.750718 2.972113 -0.121630 -0.062430 -0.114420 -0.155170 -0.239891 7.737186 11.299059 3.004055 -15.798422 -0.792151 -8.556574 7.954190 -0.058018 3.184488 -1.231875 -0.024390 -0.158060 -0.076260 0.062750 
0.077980 16.948180 -2.083910 -2.896110 0.440091 12.549030 -15.231227 12.453099 3.657466 12.540671 -1.818932 -9.672693 -9.357527 3.200554 -7.376124 0.497129 3.726205 3.249365 -0.179900 -0.165770 0.059750 18.122822 -10.128422 3.240062 -13.882195 0.996829 -9.622485 7.284967 -2.460309 -4.799323 -0.023878 -3.499743 3.143443 -0.200230 -0.044800 -0.198390 -3.269525 -1.553144 -8.412148 5.241436 0.847472 -0.212539 0.000888 0.857935 -6.088645 2.291679 -2.687052 -15.414082 -7.488504 1.137200 36.930557 0.445400 0.419260 9.774820 -3.108647 -3.781906 6.381800 -3.972840 16.686084 -1.998508 5.840222 -4.999003 0.354803 -3.754103 2.965139 -0.115020 -0.064730 -0.111440 -0.159090 -0.364783 7.687890 11.321094 3.121768 -15.745153 -0.811261 -8.551823 7.685036 -0.045570 3.189780 -1.223908 -0.025210 -0.160950 -0.074120 0.058090 
0.082900 16.950000 -2.077540 -2.858184 0.473102 12.589017 -15.237177 12.453161 3.659384 12.451350 -1.816944 -9.620320 -9.340025 3.188080 -7.429361 0.493441 3.720653 3.249462 -0.181690 -0.169940 0.064760 18.115206 -10.128793 3.250201 -13.938977 0.994246 -9.563663 7.254021 -2.455753 -4.906119 -0.029520 -3.503358 3.140880 -0.203390 -0.052550 -0.200750 -3.249487 -1.547206 -8.426467 5.063079 0.865664 -0.344568 0.092401 0.863514 -6.287973 2.343401 -2.600117 -15.491375 -7.426376 1.113628 37.443406 0.298140 0.484340 9.789720 -3.062525 -3.838203 6.407323 -3.969288 16.611075 -1.990135 6.067708 -4.902972 0.364914 -3.754858 2.951724 -0.105720 -0.070030 -0.106050 -0.163960 -0.488914 7.690887 11.376572 3.259603 -15.705880 -0.835719 -8.580832 7.280002 -0.025564 3.199347 -1.208857 -0.027720 -0.160220 -0.072840 0.052640 
0.087960 16.950700 -2.071000 -2.793255 0.505801 12.576635 -15.247252 12.454626 3.663745 12.378981 -1.808629 -9.505004 -9.333785 3.176022 -7.513324 0.490686 3.723052 3.244832 -0.180410 -0.171990 0.075340 18.104488 -10.129346 3.251887 -14.012644 0.980353 -9.471036 7.180698 -2.461744 -4.952564 -0.035824 -3.505522 3.137436 -0.206040 -0.064450 -0.201030 -3.219079 -1.549090 -8.435272 4.817378 0.870755 -0.477179 0.230049 0.847151 -6.392058 2.414987 -2.536273 -15.549071 -7.422604 1.089046 37.970830 0.030130 0.619170 9.689430 -3.133252 -3.926509 6.426274 -3.812382 16.594201 -1.955023 6.154642 -4.765616 0.366637 -3.753659 2.939755 -0.095130 -0.076570 -0.098030 -0.171140 -0.518558 7.732860 11.418741 3.198066 -15.709823 -0.828952 -8.490419 6.929974 -0.006988 3.207120 -1.193627 -0.028090 -0.161600 -0.072330 0.045350 
0.093300 16.951120 -2.064220 -2.725997 0.465815 12.569809 -15.256375 12.460974 3.665453 12.260586 -1.795972 -9.392003 -9.276780 3.160793 -7.568993 0.491301 3.715523 3.244628 -0.177640 -0.170870 0.083070 18.092602 -10.143880 3.249725 -14.088827 0.972371 -9.439991 7.026522 -2.467317 -4.917577 -0.040683 -3.501663 3.135066 -0.208550 -0.074110 -0.197020 -3.187169 -1.533021 -8.440846 4.523075 0.897458 -0.613810 0.388881 0.846907 -6.567252 2.490563 -2.449677 -15.607852 -7.357263 1.078844 38.516540 -0.253020 0.783150 9.714360 -3.218323 -4.013095 6.450797 -3.599867 16.544786 -1.894271 6.479518 -4.311742 0.378438 -3.761553 2.931182 -0.089540 -0.080540 -0.089910 -0.174520 -0.543319 7.774147 11.446362 3.023173 -15.626083 -0.793471 -8.271924 6.540822 0.004419 3.216229 -1.183007 -0.023980 -0.166540 -0.073400 0.041810 
0.097770 16.949710 -2.058200 -2.681107 0.410631 12.533499 -15.264330 12.460987 3.666608 12.182187 -1.779866 -9.224052 -9.240329 3.149256 -7.657780 0.491858 3.723061 3.244678 -0.175960 -0.169920 0.087880 18.084805 -10.158046 3.239131 -14.130607 0.957173 -9.421926 6.904051 -2.479463 -4.817423 -0.039601 -3.500502 3.136246 -0.206920 -0.074790 -0.196520 -3.162996 -1.510346 -8.432779 4.263310 0.909201 -0.738738 0.531616 0.827977 -6.620286 2.535437 -2.386497 -15.590474 -7.266992 1.072172 38.765254 -0.514700 0.944940 9.791980 -3.329241 -4.038173 6.436462 -3.429630 16.434546 -1.829320 6.925539 -3.930460 0.399156 -3.773906 2.923528 -0.089890 -0.077870 -0.089600 -0.174750 -0.500590 7.760600 11.420026 2.773127 -15.430988 -0.733662 -8.106063 6.168836 0.001550 3.221482 -1.178305 -0.025030 -0.165680 -0.074770 0.039490 
0.102470 16.946520 -2.053370 -2.686285 0.335131 12.499476 -15.267542 12.461687 3.670386 12.161561 -1.763517 -9.087351 -9.245496 3.148048 -7.725897 0.491776 3.739003 3.242987 -0.177820 -0.171730 0.086270 18.081369 -10.172708 3.222699 -14.161670 0.943747 -9.472787 6.881701 -2.508288 -4.606924 -0.032332 -3.497859 3.138976 -0.204810 -0.069330 -0.196350 -3.152472 -1.491102 -8.419952 4.141349 0.917596 -0.821396 0.593691 0.816242 -6.617503 2.564279 -2.363467 -15.568956 -7.202917 1.088268 38.777790 -0.730470 1.098720 9.940440 -3.270991 -3.974629 6.411838 -3.520744 16.258542 -1.814375 7.257480 -3.693820 0.415613 -3.788539 2.918470 -0.093950 -0.070720 -0.094770 -0.173770 -0.613307 7.701776 11.406653 2.783623 -15.067132 -0.709196 -8.096025 5.670297 -0.003042 3.228764 -1.175905 -0.028490 -0.164210 -0.073610 0.038780 
0.106870 16.943630 -2.049150 -2.707972 0.277461 12.437782 -15.272623 12.462365 3.679287 12.190892 -1.747485 -8.948250 -9.303805 3.149928 -7.807344 0.498270 3.759997 3.239351 -0.172690 -0.167040 0.088930 18.076308 -10.182251 3.204759 -14.180504 0.926041 -9.497191 6.872860 -2.538540 -4.398764 -0.030857 -3.494524 3.141027 -0.202160 -0.067660 -0.192300 -3.137274 -1.483927 -8.410687 4.037393 0.906685 -0.891055 0.699621 0.785377 -6.572891 2.606040 -2.381548 -15.569942 -7.244357 1.132264 38.875779 -0.930750 1.240950 10.033070 -3.245152 -3.936843 6.409121 -3.763866 16.078025 -1.821191 7.536323 -3.361812 0.430492 -3.798853 2.917589 -0.096270 -0.066900 -0.094300 -0.168940 -0.704140 7.700120 11.407797 2.711478 -14.681466 -0.670965 -8.068036 5.093655 -0.003788 3.239159 -1.175418 -0.026480 -0.165560 -0.077600 0.039570 
0.111470 16.942060 -2.045590 -2.737572 0.282496 12.370341 -15.273384 12.466670 3.676626 12.231263 -1.732290 -8.887652 -9.368383 3.176168 -7.722333 0.496177 3.775892 3.238699 -0.169720 -0.166020 0.092430 18.074526 -10.197239 3.192260 -14.186826 0.905272 -9.484005 6.862641 -2.565991 -4.225109 -0.028728 -3.495930 3.141179 -0.198230 -0.061530 -0.190490 -3.133225 -1.468621 -8.396462 3.963827 0.897496 -0.919060 0.742288 0.765898 -6.542387 2.608644 -2.352349 -15.525686 -7.162812 1.128856 38.853523 -1.007370 1.284840 10.047160 -3.199387 -3.876391 6.372416 -3.947481 15.766295 -1.811756 7.711786 -3.078054 0.437136 -3.810949 2.911276 -0.097660 -0.061820 -0.096620 -0.165340 -0.766531 7.627126 11.375652 2.724665 -14.254443 -0.641784 -7.987815 4.419572 -0.006365 3.250630 -1.171349 -0.029830 -0.161510 -0.079840 0.039480 
0.115100 16.941400 -2.043330 -2.789977 0.227231 12.319629 -15.271723 12.473741 3.672285 12.230934 -1.724663 -8.816920 -9.285529 3.178770 -7.679093 0.489957 3.772291 3.240680 -0.163560 -0.159580 0.099070 18.074302 -10.216796 3.182372 -14.158216 0.891100 -9.534252 6.850746 -2.585533 -4.041078 -0.026817 -3.485641 3.142874 -0.191940 -0.064220 -0.192960 -3.134176 -1.446768 -8.386158 3.917275 0.920205 -0.904481 0.707208 0.785746 -6.565299 2.618583 -2.269547 -15.478526 -6.980142 1.094289 38.864628 -1.028760 1.320560 9.898910 -3.274767 -3.866608 6.331125 -3.934814 15.539168 -1.773971 7.857939 -2.799808 0.446542 -3.815275 2.907090 -0.095880 -0.063160 -0.096030 -0.164840 -0.734757 7.568303 11.340468 2.771680 -13.909725 -0.617709 -7.836236 3.752752 -0.007306 3.262578 -1.165682 -0.032180 -0.159130 -0.083410 0.036640 
0.118190 16.942030 -2.040610 -2.842771 0.176123 12.309574 -15.269234 12.480460 3.669602 12.238268 -1.725602 -8.811157 -9.217204 3.183185 -7.600005 0.481048 3.761237 3.241517 -0.158250 -0.153710 0.107040 18.072527 -10.240428 3.179279 -14.102661 0.883525 -9.618484 6.840556 -2.597600 -3.892168 -0.024654 -3.470463 3.144369 -0.186100 -0.070780 -0.196060 -3.133311 -1.413450 -8.386576 3.828704 0.930957 -0.878635 0.680353 0.802258 -6.772018 2.627112 -2.109575 -15.441437 -6.658499 1.051479 39.043646 -1.013580 1.364710 9.746030 -3.323941 -3.854631 6.290438 -3.951595 15.363986 -1.748326 8.066042 -2.670497 0.462182 -3.817066 2.902418 -0.092260 -0.066690 -0.093530 -0.167460 -0.741951 7.457737 11.287194 2.978913 -13.419384 -0.615405 -7.799613 2.958181 0.006625 3.279636 -1.157840 -0.034420 -0.158680 -0.086380 0.032350 
0.120350 16.943670 -2.037370 -2.932554 0.135452 12.335040 -15.263528 12.481763 3.677832 12.306503 -1.734271 -8.816403 -9.206494 3.181358 -7.608341 0.476462 3.764976 3.239773 -0.155970 -0.152890 0.109470 18.074526 -10.258401 3.174232 -13.991136 0.882551 -9.727410 6.836246 -2.605521 -3.746310 -0.021427 -3.451278 3.148666 -0.183140 -0.071810 -0.197420 -3.143079 -1.385994 -8.393996 3.864951 0.931195 -0.866828 0.575854 0.819448 -7.031044 2.617415 -1.995292 -15.426108 -6.426577 1.047276 39.219052 -0.894580 1.337570 9.729330 -3.322735 -3.830725 6.258995 -4.008452 15.250784 -1.739099 8.043015 -2.624508 0.461659 -3.818029 2.899109 -0.088730 -0.068480 -0.093140 -0.166960 -0.770348 7.371297 11.250831 3.239426 -13.004508 -0.628264 -7.734982 2.256817 0.023253 3.294171 -1.151033 -0.037660 -0.157300 -0.087110 0.030120 
0.121920 16.942260 -2.035350 -3.109576 0.064628 12.281927 -15.257388 12.485698 3.689167 12.494116 -1.726896 -8.735631 -9.220133 3.192373 -7.646466 0.480019 3.785146 3.231320 -0.155930 -0.151350 0.107410 18.080440 -10.265868 3.158746 -13.803464 0.866991 -9.767634 6.825706 -2.618605 -3.561024 -0.018660 -3.429834 3.153107 -0.182070 -0.072850 -0.199000 -3.159928 -1.388651 -8.392254 4.078427 0.932318 -0.852029 0.470715 0.832196 -6.958581 2.601415 -1.991178 -15.458744 -6.414755 1.105942 39.260978 -0.692950 1.278860 9.689510 -3.397585 -3.912167 6.303026 -4.210689 15.249063 -1.751805 8.073944 -2.468072 0.464705 -3.816908 2.900062 -0.086700 -0.071920 -0.092160 -0.167480 -0.691526 7.445764 11.274757 3.371609 -12.769958 -0.626002 -7.714149 1.525235 0.047630 3.311164 -1.144463 -0.038140 -0.156960 -0.085980 0.030700 
0.120650 16.941050 -2.033510 -3.215380 0.051153 12.276330 -15.256587 12.481982 3.702521 12.663379 -1.728341 -8.698535 -9.312527 3.202290 -7.691874 0.487866 3.806530 3.223462 -0.155790 -0.150090 0.104030 18.081897 -10.269532 3.147130 -13.626381 0.855808 -9.787150 6.741224 -2.614603 -3.480735 -0.017156 -3.412809 3.159587 -0.182890 -0.071870 -0.197450 -3.162447 -1.384729 -8.393351 4.089066 0.928711 -0.874235 0.494724 0.823787 -6.926041 2.566380 -2.005322 -15.515242 -6.454470 1.133755 39.327628 -0.532210 1.174650 9.726620 -3.417934 -4.015416 6.367084 -4.465574 15.218394 -1.776211 8.108536 -2.309892 0.470120 -3.817451 2.900399 -0.086480 -0.072970 -0.090580 -0.165520 -0.602358 7.544632 11.318593 3.498622 -12.618743 -0.623862 -7.717502 0.678358 0.084517 3.330729 -1.138533 -0.035980 -0.157950 -0.086350 0.033690 
